<svg width="151" height="150" viewBox="0 0 151 150" fill="none" xmlns="http://www.w3.org/2000/svg">
<g clip-path="url(#clip0_1_112)">
<path d="M116.453 51.6431C114.779 50.5733 113.904 48.6526 114.227 46.7507C118.343 22.3889 99.4853 0.345636 75.2233 0.0040446C49.9612 -0.3535 30.6191 22.3538 35.1536 47.2453C35.4923 49.1156 34.7302 51.0331 33.2123 52.1279C29.0131 55.1591 26.6924 60.058 27.006 65.2254C27.8246 78.7148 44.7594 84.2447 53.4683 74.0623C53.5906 74.1374 53.716 74.2156 53.8383 74.2879C55.1179 75.0605 55.8799 76.3803 55.8799 77.8195V84.2853C55.8799 86.7378 56.8553 89.0273 58.6271 90.7321C64.273 96.165 73.8434 92.2689 73.8434 84.1289V69.4765C73.8434 65.9073 78.0207 64.0148 80.5672 66.4832C81.3449 67.2371 81.7714 68.2443 81.7714 69.3201V76.8276C81.7714 81.8523 85.9308 85.9598 91.0824 85.7837C97.8532 85.5331 99.2927 80.4284 99.6659 76.5523C109.418 83.4198 122.948 76.7237 123.393 64.866C123.591 59.5666 120.932 54.4991 116.453 51.6431ZM68.5121 20.8908C66.3698 21.6028 66.2346 21.9791 65.2913 21.9791C62.609 21.9791 61.8128 18.3308 64.2313 17.2087C65.1094 16.8021 66.0189 16.4423 66.9378 16.1389C68.2549 15.7041 69.6724 16.4173 70.1083 17.7311C70.5411 19.0421 69.8292 20.4588 68.5121 20.8908ZM52.794 37.1223C51.1655 37.1223 49.9665 35.6021 50.3542 34.0224C51.2479 30.4 52.9791 26.9528 55.3688 24.0593C56.2469 22.9926 57.8306 22.8393 58.9 23.7152C59.9694 24.5942 60.1231 26.1708 59.2418 27.2375C57.3288 29.5585 55.9427 32.3144 55.2276 35.2173C54.9485 36.3594 53.923 37.1223 52.794 37.1223ZM104.658 83.97C106.132 84.2469 106.985 85.799 106.433 87.1907L83.9883 143.717C80.6691 152.093 68.624 152.097 65.3035 143.717L42.9257 87.3653C42.3525 85.922 43.293 84.337 44.8347 84.1227C45.8479 83.9816 46.8549 83.7636 47.8453 83.4664C49.3011 83.0297 50.7901 84.0126 50.9346 85.5219C51.1686 87.9646 52.0495 91.3608 55.1426 94.336C62.8289 101.729 75.0216 97.99 78.1242 88.7379C78.6582 87.1451 80.618 86.617 81.926 87.6743C88.0473 92.6227 97.7733 91.6677 102.187 84.9554C102.676 84.2121 103.596 83.7705 104.658 83.97Z" fill="#64646A"/>
</g>
<defs>
<clipPath id="clip0_1_112">
<rect width="150.382" height="150" fill="white"/>
</clipPath>
</defs>
</svg>
