<svg width="151" height="148" viewBox="0 0 151 148" fill="none" xmlns="http://www.w3.org/2000/svg">
<path d="M125.945 77.2511C125.262 76.472 124.684 75.622 124.207 74.7245C123.972 98.846 104.23 118.399 79.9921 118.399C55.6093 118.399 35.7719 98.6122 35.7719 74.2912C35.7719 49.9702 55.6093 30.1833 79.9921 30.1833C100.968 30.1833 118.579 44.8271 123.091 64.4027L127.096 34.7092L127.186 34.0416C115.783 20.7585 98.8575 12.3252 79.9921 12.3252C65.2739 12.3252 51.7371 17.4603 41.0815 26.0246V26.6657V27.2334V39.8104V40.3096C41.0815 48.7104 36.7163 56.3802 29.8091 60.7627V109.924V110.771C41.1185 126.208 59.3993 136.256 79.9921 136.256C101.631 136.256 120.718 125.161 131.845 108.377V107.469V81.1364C129.587 80.4038 127.542 79.0731 125.945 77.2511Z" fill="#64646A"/>
<path d="M79.9921 37.6796C59.753 37.6796 43.2868 54.1034 43.2868 74.2917C43.2868 94.4799 59.7525 110.904 79.9921 110.904C100.232 110.904 116.697 94.4799 116.697 74.2917C116.697 54.1034 100.231 37.6796 79.9921 37.6796Z" fill="#64646A"/>
<path d="M150.214 5.77628C150.214 2.58606 147.622 0 144.423 0C141.524 0 139.071 2.13931 138.684 5.00621L130.223 67.7458C130 69.3974 130.503 71.0639 131.602 72.3182C132.702 73.5725 134.291 74.2916 135.962 74.2916H139.359V141.588C139.359 144.624 141.827 147.085 144.87 147.085C147.914 147.085 150.381 144.624 150.381 141.588L150.214 5.77628Z" fill="#64646A"/>
<path d="M33.5666 6.99608C33.5666 4.92574 31.8847 3.24817 29.8091 3.24817C27.7335 3.24817 26.0517 4.92574 26.0517 6.99608V27.734H20.5407V6.99608C20.5407 4.92574 18.8589 3.24817 16.7833 3.24817C14.7077 3.24817 13.0258 4.92574 13.0258 6.99608V27.734H7.5149V6.99608C7.5149 4.92574 5.83307 3.24817 3.75745 3.24817C1.68183 3.24817 0 4.92574 0 6.99608V40.8103C0 48.1157 4.71785 54.3392 11.2724 56.6195V141.588C11.2724 144.623 13.7397 147.085 16.7833 147.085C19.8268 147.085 22.2942 144.623 22.2942 141.588V56.6195C28.8487 54.3392 33.5666 48.1157 33.5666 40.8103V6.99608Z" fill="#64646A"/>
</svg>
