<svg width="151" height="150" viewBox="0 0 151 150" fill="none" xmlns="http://www.w3.org/2000/svg">
<g clip-path="url(#clip0_1_99)">
<path d="M45.4342 104.313C41.4575 102.038 38.7705 97.7634 38.7705 92.8711C38.7705 72.678 55.2403 56.25 75.4848 56.25H90.6145L91.327 44.5312H5.59917L11.7568 145.871C11.898 148.191 13.8243 150 16.1545 150H43.1877C40.4158 146.325 38.7705 141.759 38.7705 136.816C38.7705 131.118 42.4144 126.254 47.4993 124.417C45.6969 121.66 44.6448 118.373 44.6448 114.844C44.6448 111.311 45.6992 108.021 47.5051 105.262C46.0686 104.939 45.2712 104.622 45.4342 104.313Z" fill="#64646A"/>
<path d="M48.4583 35.7433C48.4617 35.7433 48.4651 35.7422 48.4686 35.7422H92.52C94.9534 35.7422 96.9257 33.7749 96.9257 31.3477C96.9257 28.9204 94.9534 26.9531 92.52 26.9531H56.5962L68.4721 8.78906H83.7085C86.142 8.78906 88.1143 6.82182 88.1143 4.39453C88.1143 1.96724 86.142 0 83.7085 0H66.0857C64.5965 0 63.2082 0.749588 62.3959 1.99356L46.0764 26.9531H4.40571C1.97224 26.9531 0 28.9204 0 31.3477C0 33.7749 1.97224 35.7422 4.40571 35.7422H48.4422C48.4479 35.7422 48.4537 35.7433 48.4583 35.7433Z" fill="#64646A"/>
<path d="M47.5817 92.8711C47.5817 95.2984 49.5539 97.2656 51.9874 97.2656H145.976C148.409 97.2656 150.382 95.2984 150.382 92.8711C150.382 77.5246 137.864 65.0391 122.479 65.0391H75.4845C60.099 65.0391 47.5817 77.5246 47.5817 92.8711Z" fill="#64646A"/>
<path d="M62.2674 106.055C57.4005 106.055 53.456 109.989 53.456 114.844C53.456 119.698 57.4005 123.633 62.2674 123.633H135.696C140.563 123.633 144.507 119.698 144.507 114.844C144.507 109.989 140.563 106.055 135.696 106.055H62.2674Z" fill="#64646A"/>
<path d="M145.976 132.422H51.9874C49.5539 132.422 47.5817 134.389 47.5817 136.816C47.5817 144.086 53.5111 150 60.7988 150H137.165C144.452 150 150.382 144.086 150.382 136.816C150.382 134.389 148.409 132.422 145.976 132.422Z" fill="#64646A"/>
</g>
<defs>
<clipPath id="clip0_1_99">
<rect width="150.382" height="150" fill="white"/>
</clipPath>
</defs>
</svg>
